<?xml version="1.0" encoding="UTF-8"?> <svg xmlns="http://www.w3.org/2000/svg" width="375" height="37" viewBox="0 0 375 37" fill="none"><g clip-path="url(#clip0_1687_12)"><path fill-rule="evenodd" clip-rule="evenodd" d="M25.1726 0H27.2733V36.1025H25.1726V19.4822H2.11854V36.1025H0.0119019V19.4822H0V17.4478H25.1726V0Z" fill="white"></path><path d="M87.7812 0H107.146C109.931 0 112.454 1.09192 114.281 2.8505C116.108 4.61482 117.233 7.05154 117.233 9.74112C117.233 12.4307 116.102 14.8674 114.281 16.6317C112.454 18.3961 109.931 19.488 107.146 19.488H89.8998V36.1082H87.7932V19.488H87.7812V17.4536H107.146C109.348 17.4536 111.347 16.5915 112.787 15.195C114.233 13.7985 115.126 11.8732 115.126 9.74687C115.126 7.62049 114.233 5.6895 112.787 4.29874C111.341 2.90222 109.348 2.04018 107.146 2.04018H107.05H87.7812V0Z" fill="white"></path><path d="M68.5633 6.86113C65.5819 3.98189 61.4578 2.19458 56.9054 2.19458C52.3529 2.19458 48.2288 3.97615 45.2474 6.86113C42.266 9.74611 40.4212 13.723 40.4212 18.1194C40.4212 22.5159 42.266 26.4985 45.2474 29.3778C48.2288 32.257 52.3529 34.0443 56.9054 34.0443C61.4578 34.0443 65.5819 32.2627 68.5633 29.3778C71.5447 26.4928 73.3955 22.5159 73.3955 18.1194C73.3955 13.723 71.5507 9.74036 68.5633 6.86113ZM56.9054 0.160156C62.041 0.160156 66.6887 2.1716 70.057 5.41864C73.4252 8.66568 75.5021 13.1598 75.5021 18.1194C75.5021 23.0791 73.4193 27.5675 70.057 30.8203C66.6887 34.073 62.041 36.0787 56.9054 36.0787C51.7697 36.0787 47.122 34.0673 43.7537 30.8203C40.3914 27.5732 38.3086 23.0791 38.3086 18.1194C38.3086 13.1598 40.3914 8.67142 43.7537 5.41864C47.116 2.16585 51.7697 0.160156 56.9054 0.160156Z" fill="white"></path><path d="M154.939 1.9593L172.934 36.0848H170.566L161.669 19.206L153.998 4.66037L137.425 36.0848H135.062L153.998 0.177734L154.939 1.9593Z" fill="white"></path><path d="M210.169 20.5278H210.157V34.9642L208.05 36.1021V20.5278H199.975V18.4934H208.05V18.4704H210.157V18.4934H210.169V20.5278ZM197.124 0.0800781C201.468 0.0800781 205.461 1.51682 208.627 3.9248L207.318 5.52246C204.515 3.39033 200.974 2.11451 197.124 2.11451C192.572 2.11451 188.448 3.89607 185.466 6.78105C182.485 9.66028 180.634 13.6429 180.634 18.0394C180.634 18.8497 180.699 19.6428 180.818 20.4186H178.688C178.581 19.6428 178.527 18.8439 178.527 18.0394C178.527 13.0797 180.61 8.59135 183.972 5.33856C187.335 2.08577 191.988 0.0800781 197.124 0.0800781Z" fill="white"></path><path d="M245.692 0H222.906V2.03443H245.692V0Z" fill="white"></path><path d="M245.692 17.4307H222.906V19.4651H245.692V17.4307Z" fill="white"></path><path d="M245.692 34.0508H222.906V36.0852H245.692V34.0508Z" fill="white"></path><path d="M289.325 30.8153V0H291.432V36.0967L262.421 5.43089V36.1025H260.309V0.183903L289.325 30.8153Z" fill="white"></path><path d="M321.643 0C326.332 0 330.623 1.67237 333.902 4.42517L332.51 5.95386C329.599 3.5114 325.797 2.02868 321.643 2.02868C317.067 2.02868 312.925 3.82174 309.926 6.71821C306.926 9.61469 305.07 13.6146 305.07 18.034C305.07 22.4534 306.926 26.4533 309.926 29.3498C312.925 32.2463 317.067 34.0393 321.643 34.0393C325.946 34.0393 329.867 32.4532 332.813 29.8555L334.241 31.3555C330.921 34.2864 326.499 36.0738 321.643 36.0738C316.484 36.0738 311.812 34.0566 308.432 30.7923C305.052 27.528 302.957 23.0166 302.957 18.034C302.957 13.0514 305.046 8.54 308.432 5.27572C311.812 2.01719 316.484 0 321.643 0Z" fill="#EF7F30"></path><path d="M321.642 3.70605C325.362 3.70605 328.766 5.02786 331.372 7.21171L329.98 8.74615C327.748 6.87264 324.832 5.74048 321.642 5.74048C318.125 5.74048 314.942 7.11976 312.639 9.34384C310.336 11.5679 308.907 14.6425 308.907 18.039C308.907 21.4355 310.336 24.5101 312.639 26.7342C314.942 28.9583 318.125 30.3375 321.642 30.3375C324.945 30.3375 327.951 29.1249 330.212 27.1365L331.64 28.6364C329.004 30.9582 325.493 32.3777 321.642 32.3777C317.542 32.3777 313.835 30.7743 311.145 28.1767C308.455 25.579 306.801 21.9987 306.801 18.039C306.801 14.0793 308.461 10.499 311.145 7.90709C313.829 5.31521 317.542 3.70605 321.642 3.70605Z" fill="#EF7F30"></path><path d="M360.123 19.016V36.1017H358.016V19.016L343.145 0.160156H345.787L359.069 16.9988L372.352 0.160156H374.994L360.123 19.016Z" fill="white"></path><path d="M129.201 33.6426H126.672V36.085H129.201V33.6426Z" fill="white"></path></g><defs><clipPath id="clip0_1687_12"><rect width="375" height="36.1025" fill="white"></rect></clipPath></defs></svg> 