<?xml version="1.0" encoding="UTF-8"?>
<svg id="_Слой_2" data-name="Слой 2" xmlns="http://www.w3.org/2000/svg" xmlns:xlink="http://www.w3.org/1999/xlink" viewBox="0 0 264.72 259.01">
  <defs>
    <style>
      .cls-1 {
        fill: url(#_Безымянный_градиент_9);
      }

      .cls-2 {
        fill: #005546;
      }

      .cls-3 {
        fill: url(#_Безымянный_градиент_8);
      }

      .cls-4 {
        fill: url(#_Безымянный_градиент_8-2);
      }

      .cls-5 {
        fill: url(#_Безымянный_градиент_8-3);
      }
    </style>
    <linearGradient id="_Безымянный_градиент_8" data-name="Безымянный градиент 8" x1="223.88" y1="-50.88" x2="154.39" y2="79.16" gradientUnits="userSpaceOnUse">
      <stop offset=".64" stop-color="#b1ec52"/>
      <stop offset=".67" stop-color="#ade851"/>
      <stop offset=".7" stop-color="#a1de50"/>
      <stop offset=".73" stop-color="#8dce4f"/>
      <stop offset=".76" stop-color="#72b74d"/>
      <stop offset=".79" stop-color="#4f994b"/>
      <stop offset=".81" stop-color="#2d7d49"/>
    </linearGradient>
    <linearGradient id="_Безымянный_градиент_8-2" data-name="Безымянный градиент 8" x1="264.69" y1="-29.07" x2="195.2" y2="100.97" xlink:href="#_Безымянный_градиент_8"/>
    <linearGradient id="_Безымянный_градиент_9" data-name="Безымянный градиент 9" x1="-151.84" y1="764.7" x2="249.29" y2="-132.25" gradientUnits="userSpaceOnUse">
      <stop offset=".76" stop-color="#b1ec52"/>
      <stop offset=".76" stop-color="#ade851"/>
      <stop offset=".77" stop-color="#a1de50"/>
      <stop offset=".78" stop-color="#8dce4f"/>
      <stop offset=".78" stop-color="#72b74d"/>
      <stop offset=".79" stop-color="#4f994b"/>
      <stop offset=".8" stop-color="#2d7d49"/>
    </linearGradient>
    <linearGradient id="_Безымянный_градиент_8-3" data-name="Безымянный градиент 8" x1="119.08" y1="116.45" x2="162.59" y2="24.7" xlink:href="#_Безымянный_градиент_8"/>
  </defs>
  <g id="_Слой_1-2" data-name="Слой 1">
    <g>
      <path class="cls-2" d="m264.42,140.65V.05H64.74c-6.24,0-12.27.9-17.98,2.55l217.67,138.05Z"/>
      <g>
        <path class="cls-3" d="m188.68,66.37h-16.93V27.97h-13.8v-6.87c4.43-.15,7.98-.86,10.66-2.12s4.77-2.62,6.27-4.07c1.75-1.76,3.01-3.7,3.76-5.85h10.03v57.3Z"/>
        <path class="cls-4" d="m252.64,21.21h-38.5l-2.89,16.5h.5c1.34-1.3,2.89-2.44,4.64-3.44,1.51-.84,3.34-1.62,5.52-2.35,2.17-.73,4.68-1.09,7.53-1.09,4.68,0,8.76.71,12.23,2.12,3.47,1.41,6.33,3.29,8.59,5.61,2.26,2.33,3.95,5.06,5.08,8.2,1.13,3.13,1.69,6.42,1.69,9.86,0,4.12-.73,7.95-2.2,11.46-1.46,3.51-3.55,6.55-6.27,9.11-2.72,2.56-6,4.54-9.85,5.96-3.85,1.41-8.19,2.12-13.04,2.12s-8.99-.57-12.92-1.72c-3.93-1.15-7.3-2.79-10.1-4.93-2.8-2.14-5-4.72-6.58-7.74-1.59-3.02-2.38-6.4-2.38-10.14h16.93c0,4.13,1.38,7.34,4.14,9.63,2.76,2.29,6.4,3.44,10.91,3.44,4.26,0,7.73-1.47,10.41-4.41,2.67-2.94,4.01-7.01,4.01-12.2,0-4.89-1.42-8.69-4.26-11.4-2.84-2.71-6.86-4.07-12.04-4.07-2.68,0-5.02.4-7.02,1.2-2.01.8-3.72,1.74-5.14,2.81-1.59,1.15-2.97,2.49-4.14,4.01h-12.54l7.15-40.68h50.54v12.15Z"/>
      </g>
      <path class="cls-1" d="m264.72,168.51v-.24s-.09-30.28-.09-30.28c-1.91-19.87-15.7-34.81-30.35-50.73-6.93-7.54-19.26-13.04-39.37-22.8-16.8-8.15-40.38-20.38-57.92-28.73C103.62,19.86,70.34.42,64.34.04c-2.08.05-17.75-1.47-35.73,11.01-.02.02-.03.04-.05.06C11.33,22.73,0,42.44,0,64.79v129.48c0,35.75,28.98,64.74,64.74,64.74h134.95c35.75,0,64.74-28.98,64.74-64.74l.3-25.75s0,0,0,0c0,0,0,0,0-.01Z"/>
      <path class="cls-5" d="m64.31.04s11.61,1.15,54.52,25.7c30.95,17.71,44.75,24.64,65.54,32.34,42.83,15.87,55.47,35.61,55.47,35.61,0,0-7.77-12.82-53.58-27.18-27.99-8.77-111.59-24.64-111.59-24.64,0,0,12.26-16.47,7.44-27.13C77.13,3.71,64.31.04,64.31.04Z"/>
      <path class="cls-2" d="m213.98,97.12h-31.09l-29.58,32.39v-64.72h-24v15.68c-.78-1.01-1.61-2.02-2.53-3-8.73-9.24-21.3-13.92-37.37-13.92-18.59,0-29.16,8.32-34.75,15.3-6.95,8.66-10.05,20.49-7.9,30.12,5.56,24.94,28.7,28.93,45.7,31.14,13.42,1.75,26.27,4.18,25.92,16.15-.36,12.42-14.35,15.47-23.54,15.47-23.93,0-24.74-17.68-24.74-17.68h-25.73c.38,6.64,2.38,17.3,10.56,26.45,8.95,10.02,22.38,15.11,39.91,15.11,13.45,0,25.69-4.38,34.47-12.16v10.69h24v-30.55l8.49-9.29,24.24,39.84h27.93l-35.27-58.35,35.28-38.67Zm-143.21,6.34c-2.12-9.26,7.12-17.46,19.08-17.46,10.77,0,21.56,2.41,25.66,17.42h13.8v22.91c-17.21-14.14-54.51-5.27-58.54-22.88Z"/>
    </g>
  </g>
</svg>